<?xml version="1.0" encoding="UTF-8" standalone="no"?>
<!DOCTYPE svg PUBLIC "-//W3C//DTD SVG 1.1//EN" "http://www.w3.org/Graphics/SVG/1.1/DTD/svg11.dtd">
<svg width="100%" height="100%" viewBox="0 0 4162 967" version="1.1" xmlns="http://www.w3.org/2000/svg" xmlns:xlink="http://www.w3.org/1999/xlink" xml:space="preserve" xmlns:serif="http://www.serif.com/" style="fill-rule:evenodd;clip-rule:evenodd;stroke-linejoin:round;stroke-miterlimit:2;">
    <g transform="matrix(1,0,0,1,-904,-1350)">
        <g id="Artboard2" transform="matrix(0.994504,0,0,0.963147,27.8418,85.3875)">
            <rect x="881" y="1313" width="4185" height="1004" style="fill:none;"/>
            <g transform="matrix(1.04356,0,0,1.12908,-685.367,-1921.83)">
                <path d="M2373,2947.71L2373,3674.29C2373,3707.24 2344.96,3734 2310.43,3734L1589.57,3734C1555.04,3734 1527,3707.24 1527,3674.29L1527,2947.71C1527,2914.76 1555.04,2888 1589.57,2888L2310.43,2888C2344.96,2888 2373,2914.76 2373,2947.71Z" style="fill:rgb(105,0,95);"/>
            </g>
            <g transform="matrix(1.00553,0,0,1.03826,4666.62,1554.94)">
                <g transform="matrix(1,0,0,1,-2709.9,-208.333)">
                    <clipPath id="_clip1">
                        <rect x="0" y="0" width="5419.79" height="416.667"/>
                    </clipPath>
                    <g clip-path="url(#_clip1)">
                        <g id="Helmholtz" transform="matrix(4.16667,0,0,4.16667,0,0)">
                            <path d="M53.45,0L72.64,0L72.64,100L53.45,100L53.45,59.67L19.18,59.67L19.18,100L0,100L0,0L19.18,0L19.18,40.47L53.45,40.47L53.45,0ZM103.58,0C102.725,0.023 101.912,0.382 101.32,1L95.12,7.2C94.459,7.756 94.09,8.587 94.12,9.45L94.12,90.55C94.088,91.416 94.457,92.251 95.12,92.81L101.32,99.01C101.879,99.673 102.714,100.042 103.58,100.01L157.18,100.01L157.18,80.82L113.31,80.82L113.31,59.67L151.4,59.67L151.4,40.47L113.31,40.47L113.31,19.18L157.18,19.18L157.18,0L103.58,0ZM186.05,100L230.65,100L230.65,80.82L195.78,80.82L195.78,0L176.6,0L176.6,90.55C176.559,91.418 176.93,92.257 177.6,92.81L183.8,99.01C184.359,99.673 185.194,100.042 186.06,100.01L186.05,100ZM374,40.47L374,0L354.82,0L354.82,100L374,100L374,59.67L408.27,59.67L408.27,100L427.46,100L427.46,0L408.27,0L408.27,40.47L374,40.47ZM501.61,71.47C501.553,72.317 501.199,73.118 500.61,73.73L494.55,79.79C493.919,80.435 493.052,80.796 492.15,80.79L475,80.79C474.138,80.797 473.314,80.432 472.74,79.79L466.68,73.73C466.038,73.156 465.673,72.332 465.68,71.47L465.68,28.63C465.648,27.764 466.017,26.929 466.68,26.37L472.74,20.17C473.352,19.581 474.153,19.227 475,19.17L492.21,19.17C493.099,19.227 493.944,19.579 494.61,20.17L500.67,26.37C501.283,26.965 501.642,27.776 501.67,28.63L501.61,71.47ZM506.12,4.75C503.115,1.771 499.071,0.068 494.84,0L472.42,0C468.129,0.014 464.017,1.739 461,4.79L451.12,14.67C448.126,17.678 446.449,21.756 446.46,26L446.46,74C446.457,78.228 448.13,82.29 451.11,85.29L460.99,95.29C463.998,98.35 468.129,100.052 472.42,100L494.84,100C499.065,100.001 503.123,98.328 506.12,95.35L516.12,85.35C519.122,82.339 520.804,78.252 520.79,74L520.79,26C520.791,21.775 519.118,17.717 516.14,14.72L506.14,4.84L506.12,4.75ZM548.82,100L594.22,100L594.22,80.82L558.55,80.82L558.55,0L539.37,0L539.37,90.55C539.332,91.418 539.702,92.255 540.37,92.81L546.58,99.01C547.139,99.673 547.974,100.042 548.84,100.01L548.82,100ZM615.82,19.18L615.82,100L635,100L635,19.18L661.51,19.18L661.51,0L589.32,0L589.32,19.18L615.82,19.18ZM730.19,1C729.592,0.384 728.778,0.025 727.92,0L671.92,0L671.92,19.18L711.56,19.18L670.1,84.77L670.1,90.55C670.131,91.403 670.489,92.213 671.1,92.81L677.31,99.01C677.869,99.673 678.704,100.042 679.57,100.01L736.83,100.01L736.83,80.82L695.34,80.82L737.34,14.38L737.34,9.44C737.305,8.59 736.948,7.785 736.34,7.19L730.19,1ZM314.31,0L287.63,46.21L260.94,0L242.59,0L242.59,100L261.77,100L261.77,38.15L279,68C279.571,68.988 280.629,69.6 281.77,69.6L293.5,69.6C294.642,69.602 295.701,68.99 296.27,68L313.35,38.43L313.35,100L332.53,100L332.53,0L314.31,0Z" style="fill:rgb(105,0,95);fill-rule:nonzero;"/>
                        </g>
                    </g>
                </g>
            </g>
            <g transform="matrix(1.00553,0,0,1.03826,1346.37,2072.93)">
                <g transform="matrix(1,0,0,1,-2709.9,-208.333)">
                    <clipPath id="_clip2">
                        <rect x="0" y="0" width="5419.79" height="416.667"/>
                    </clipPath>
                    <g clip-path="url(#_clip2)">
                        <g id="Munich" transform="matrix(4.16667,0,0,4.16667,0,0)">
                            <path d="M956.48,71.51L956.48,0L975.8,0L975.8,74.05C975.737,78.28 974.012,82.32 971,85.29L961.15,95.29C958.169,98.311 954.094,100.009 949.85,100L930.85,100C926.624,100.006 922.567,98.32 919.59,95.32L909.73,85.32C906.725,82.338 905.023,78.283 905,74.05L905,0L924.18,0L924.18,71.51C924.181,72.341 924.483,73.144 925.03,73.77L931.23,79.83C931.787,80.495 932.623,80.865 933.49,80.83L947.17,80.83C948.034,80.867 948.868,80.496 949.42,79.83L955.63,73.77C956.177,73.144 956.479,72.341 956.48,71.51ZM1070.14,0L1070.14,100L1052.79,100C1051.68,100.02 1050.65,99.422 1050.11,98.45L1016.4,38.93L1016.4,100L997.22,100L997.22,0L1014.42,0C1015.6,0.003 1016.69,0.658 1017.25,1.7L1051,61.07L1051,0L1070.14,0ZM1111.56,100L1092.38,100L1092.38,0L1111.56,0L1111.56,100ZM1281.76,0L1261.21,0L1277.47,40.42L1242.77,40.42L1242.77,59.53L1277.47,59.53L1261.21,100L1281.76,100L1300.76,50L1281.76,0ZM1187.76,71.37L1185.37,73.76L1179.3,79.82C1178.67,80.465 1177.8,80.826 1176.9,80.82L1159.7,80.82C1158.84,80.827 1158.01,80.462 1157.44,79.82L1151.37,73.76C1150.73,73.186 1150.36,72.362 1150.37,71.5L1150.37,28.63C1150.34,27.764 1150.71,26.929 1151.37,26.37L1157.44,20.17C1158.05,19.581 1158.85,19.227 1159.7,19.17L1176.9,19.17C1177.79,19.227 1178.63,19.579 1179.3,20.17L1187.76,28.63L1201.28,15.11C1201.15,14.956 1201.02,14.809 1200.88,14.67L1190.88,4.79C1187.88,1.798 1183.84,0.08 1179.6,0L1157.18,0C1152.89,0.011 1148.77,1.736 1145.75,4.79L1135.88,14.67C1132.89,17.678 1131.21,21.756 1131.22,26L1131.22,74C1131.22,78.23 1132.9,82.292 1135.88,85.29L1145.75,95.29C1148.77,98.326 1152.9,100.006 1157.18,99.94L1179.6,99.94C1183.83,99.943 1187.89,98.27 1190.89,95.29L1200.89,85.29C1201.03,85.151 1201.16,85.004 1201.29,84.85L1187.76,71.37ZM1233,100L1213.82,100L1213.82,0L1233,0L1233,100ZM865.4,0L838.72,46.21L812,0L793.68,0L793.68,100L812.86,100L812.86,38.15L830.07,68C830.641,68.988 831.699,69.6 832.84,69.6L844.59,69.6C845.732,69.602 846.791,68.99 847.36,68L864.44,38.43L864.44,100L883.62,100L883.62,0L865.4,0Z" style="fill:rgb(255,80,110);fill-rule:nonzero;"/>
                        </g>
                    </g>
                </g>
            </g>
            <g transform="matrix(1.75122,0,0,1.80824,1349.58,1816.56)">
                <g transform="matrix(1,0,0,1,-181.062,-208.333)">
                    <clipPath id="_clip3">
                        <rect x="0" y="0" width="362.125" height="416.667"/>
                    </clipPath>
                    <g clip-path="url(#_clip3)">
                        <g id="Helmholtz-Munich-Logo-Arrow-Symbol" transform="matrix(4.16667,0,0,4.16667,0,0)">
                            <g id="Aroow_Symbol_Red">
                                <path id="Aroow_Symbol_Red-2" d="M67.92,0L47.38,0L63.63,40.42L28.93,40.42L28.93,59.53L63.63,59.53L47.38,100L67.92,100L86.92,50L67.92,0ZM19.18,100L0,100L0,0L19.18,0L19.18,100Z" style="fill:rgb(255,80,110);fill-rule:nonzero;"/>
                            </g>
                        </g>
                    </g>
                </g>
            </g>
        </g>
    </g>
</svg>
